<svg id="Layer_1" data-name="Layer 1" xmlns="http://www.w3.org/2000/svg" viewBox="0 0 348 304"><defs><style>.cls-1{fill:#004a4d;}.cls-2{fill:#fff;}.cls-3{fill:#e82429;}.cls-4{fill:#4897a4;}.cls-5{fill:#f5a951;}.cls-6{fill:#db6b2d;opacity:0.38;}.cls-6,.cls-7,.cls-8{isolation:isolate;}.cls-7{opacity:0.1;}.cls-8{opacity:0.2;}.cls-9{fill:#ea2127;}.cls-10{fill:#ffcc07;}.cls-11{fill:none;}</style></defs><path class="cls-1" d="M271.1,249.25a132,132,0,1,0-194.2,0Z"/><path class="cls-2" d="M133.78,220.71a9.62,9.62,0,0,1-3.94-.75,7.82,7.82,0,0,1-2.82-2.09,9,9,0,0,1-1.69-3.1,12.34,12.34,0,0,1-.57-3.8,12.65,12.65,0,0,1,.28-2.71,7.86,7.86,0,0,1,1-2.52,10.84,10.84,0,0,1,1.4-1.84,7,7,0,0,1,1.72-1.3,8,8,0,0,1,2.14-.76,13.34,13.34,0,0,1,2.64-.24,10.57,10.57,0,0,1,3.71.62,7.49,7.49,0,0,1,2.8,1.83,7.88,7.88,0,0,1,1.76,3,12.34,12.34,0,0,1,.61,4.06,12.87,12.87,0,0,1-.51,3.62,8.77,8.77,0,0,1-1.61,3.09,7.8,7.8,0,0,1-2.82,2.13A9.66,9.66,0,0,1,133.78,220.71Zm.16-3.46a4.39,4.39,0,0,0,3.75-1.64,7.25,7.25,0,0,0,1.23-4.45,8.29,8.29,0,0,0-.3-2.24,5.41,5.41,0,0,0-.92-1.88,4.64,4.64,0,0,0-1.57-1.3,4.84,4.84,0,0,0-2.22-.49,5.32,5.32,0,0,0-2.25.46,3.91,3.91,0,0,0-1.57,1.33c-.16.23-.3.47-.43.7a4.82,4.82,0,0,0-.34.82,6.45,6.45,0,0,0-.23,1.09,13.36,13.36,0,0,0-.08,1.53,6.93,6.93,0,0,0,1.29,4.5A4.45,4.45,0,0,0,133.94,217.25Z"/><path class="cls-2" d="M147.07,220.2a1.42,1.42,0,0,1-1-.35,1.21,1.21,0,0,1-.38-.92v-.67c0-.35,0-.77,0-1.27s0-1.05,0-1.65,0-1.21,0-1.8,0-1.17,0-1.71v-1.38c0-.56,0-1.18,0-1.87s0-1.33,0-1.93,0-1.13,0-1.56,0-.69,0-.78a2.88,2.88,0,0,1,.47-1.76,2.19,2.19,0,0,1,1.83-.63,3.35,3.35,0,0,1,1.08.15,2.46,2.46,0,0,1,.75.41,2.69,2.69,0,0,1,.55.61,7.68,7.68,0,0,1,.49.76c.11.19.32.55.65,1.07s.7,1.12,1.12,1.82.88,1.46,1.37,2.25.95,1.57,1.38,2.33l1,1.68.58,1a3.31,3.31,0,0,0,.31.5c.07.09.14.14.19.14s.19-.11.19-.33,0-.85,0-1.85-.06-2.23-.06-3.7c0-1.08,0-1.91,0-2.49s0-1,0-1.35,0-.59,0-.8,0-.48,0-.83a1.37,1.37,0,0,1,.32-1,1.5,1.5,0,0,1,1.09-.34h.73a1.54,1.54,0,0,1,1,.3,1.24,1.24,0,0,1,.37,1v14.4a2.74,2.74,0,0,1-.54,1.83,2.57,2.57,0,0,1-2,.64,2.62,2.62,0,0,1-1.84-.61A6.42,6.42,0,0,1,155.3,218c-.14-.24-.39-.64-.73-1.22l-1.14-1.93-1.26-2.13c-.42-.73-.78-1.35-1.07-1.87-.41-.74-.73-1.34-1-1.79l-.51-1a4.42,4.42,0,0,0-.26-.49.23.23,0,0,0-.19-.12c-.09,0-.13.09-.13.27s0,.76,0,1.68,0,2.08,0,3.49v1c0,.54,0,1.14,0,1.79s0,1.28,0,1.89v1.36a1.06,1.06,0,0,1-.46,1,2,2,0,0,1-1.13.3Z"/><path class="cls-2" d="M174.9,216.87a1.31,1.31,0,0,1,.9.31,1.94,1.94,0,0,1,.35,1.39,3.63,3.63,0,0,1-.1,1,.92.92,0,0,1-.28.51.94.94,0,0,1-.45.21,5,5,0,0,1-.61,0l-1.09,0h-5.68l-1.38,0h-.84a1.72,1.72,0,0,1-1.24-.38,1.63,1.63,0,0,1-.38-1.19c0-.17,0-.56,0-1.19s0-1.36,0-2.17,0-1.66,0-2.53,0-1.64,0-2.29,0-1.36,0-2.13,0-1.5,0-2.2,0-1.33,0-1.87,0-.92,0-1.14a1.28,1.28,0,0,1,.43-1.07,2.91,2.91,0,0,1,1.65-.33,3.25,3.25,0,0,1,1.68.29,1.33,1.33,0,0,1,.43,1.17c0,.2,0,.62,0,1.27s0,1.41,0,2.29,0,1.8,0,2.79,0,1.9,0,2.76,0,1.59,0,2.22,0,1,0,1.15a1.35,1.35,0,0,0,.21.91,1.62,1.62,0,0,0,1,.2Z"/><path class="cls-2" d="M179.42,220.17a1.31,1.31,0,0,1-1.09-.39,1.57,1.57,0,0,1-.31-1s0-.19,0-.4,0-.57,0-1.06,0-1.15,0-2,0-1.91,0-3.21q0-3.71,0-5.82V203.2c0-.89.51-1.33,1.52-1.33h1a1.26,1.26,0,0,1,1,.34,1.43,1.43,0,0,1,.3,1v5c0,.8,0,1.72,0,2.78s0,2.09,0,3.11,0,1.95,0,2.78,0,1.4,0,1.73a1.61,1.61,0,0,1-.36,1.19,1.5,1.5,0,0,1-1.05.35Z"/><path class="cls-2" d="M186.6,220.2a1.42,1.42,0,0,1-1-.35,1.18,1.18,0,0,1-.38-.92v-.67c0-.35,0-.77,0-1.27s0-1.05,0-1.65,0-1.21,0-1.8,0-1.17,0-1.71v-1.38c0-.56,0-1.18,0-1.87s0-1.33,0-1.93,0-1.13,0-1.56,0-.69,0-.78a2.88,2.88,0,0,1,.47-1.76,2.19,2.19,0,0,1,1.83-.63,3.35,3.35,0,0,1,1.08.15,2.46,2.46,0,0,1,.75.41,3,3,0,0,1,.55.61c.16.23.33.48.49.76s.32.55.65,1.07.7,1.12,1.12,1.82.88,1.46,1.37,2.25.95,1.57,1.38,2.33l1,1.68.58,1a3.31,3.31,0,0,0,.31.5c.07.09.13.14.19.14s.19-.11.19-.33,0-.85-.06-1.85,0-2.23,0-3.7c0-1.08,0-1.91,0-2.49s0-1,0-1.35,0-.59,0-.8,0-.48,0-.83a1.37,1.37,0,0,1,.32-1,1.5,1.5,0,0,1,1.09-.34h.73a1.54,1.54,0,0,1,1,.3,1.24,1.24,0,0,1,.37,1v14.4a2.74,2.74,0,0,1-.54,1.83,2.57,2.57,0,0,1-2,.64,2.62,2.62,0,0,1-1.84-.61,6.42,6.42,0,0,1-1.25-1.58c-.14-.24-.39-.64-.73-1.22L193,214.86l-1.26-2.13c-.42-.73-.78-1.35-1.07-1.87-.41-.74-.73-1.34-1-1.79s-.4-.8-.51-1-.21-.41-.26-.49a.23.23,0,0,0-.19-.12c-.09,0-.13.09-.13.27s0,.76,0,1.68,0,2.08,0,3.49v1c0,.54,0,1.14,0,1.79s0,1.28,0,1.89v1.36a1.06,1.06,0,0,1-.46,1,2,2,0,0,1-1.13.3Z"/><path class="cls-2" d="M208.26,212.94a.53.53,0,0,0-.5.21.89.89,0,0,0-.12.47c0,.16,0,.44,0,.83s0,.8,0,1.25a1,1,0,0,0,.34.9,1.93,1.93,0,0,0,1,.21h7.26a1.06,1.06,0,0,1,1,.38,2.85,2.85,0,0,1,.26,1.46,2.37,2.37,0,0,1-.23,1.2,1,1,0,0,1-.88.37h-1.72l-3.08,0h-1.85l-2,0h-2.64a2.43,2.43,0,0,1-.68-.08.94.94,0,0,1-.38-.25.79.79,0,0,1-.17-.37,2.35,2.35,0,0,1,0-.47c0-.16,0-.57,0-1.23s0-1.41,0-2.27,0-1.73,0-2.63,0-1.66,0-2.31,0-1.37,0-2.14,0-1.52,0-2.24,0-1.34,0-1.9,0-.95,0-1.17a1.54,1.54,0,0,1,.25-.95,1.5,1.5,0,0,1,1.15-.32h3.58l3.21,0c1,0,1.78,0,2.45,0l1.3,0a1.09,1.09,0,0,1,.89.35,2.18,2.18,0,0,1,.3,1.35,2,2,0,0,1-.33,1.3,1.33,1.33,0,0,1-1.11.41H215l-1.16,0-1.48,0-1.52,0-1.32,0h-.84a.79.79,0,0,0-.9.89v3a1.06,1.06,0,0,0,.18.68.93.93,0,0,0,.72.22h7a1.07,1.07,0,0,1,.88.31,1.86,1.86,0,0,1,.26,1.15,2,2,0,0,1-.22,1.08.89.89,0,0,1-.84.35Z"/><polygon class="cls-2" points="184.18 174.06 225.01 155.16 232.9 103.42 235.15 86.97 250.86 55.91 241.46 48.58 213.68 54.74 183.43 69.49 144.62 39.91 124.98 24.96 127.13 67.31 109.04 100.44 115.41 133.84 146.1 168.13 184.18 174.06"/><path class="cls-3" d="M91.67,113.74c-11.23,20.58,3.64,28.94,3.64,28.94-.6-1.16-.27-7.05-.27-7.05,3.24,16.88,16.63,30.13,16.63,30.13-.8-2-1.83-12.25-1.83-12.25,2.27,11.47,14.63,20.85,14.63,20.85-1.44-1.62-3-11.7-3-11.7a43.85,43.85,0,0,0,14.25,16.6,22.74,22.74,0,0,0,4.61,2.48c.62.25,1.23.48,1.83.7h0l-.11.07a41,41,0,0,1,8.95,3.06c-10.88-5.19-6.77-2.27,0-1.61,5,.47,8.26,1.65,12.71.64,9.24-2.08,18.42-3.86,27.77-5.41,10.22-1.71,16.27-4.41,25.5-7.6l5.83-1.05c3.4-2.64,6.85-5.12,10.51-7.46.6-.38,1.22-.69,1.84-1a107.66,107.66,0,0,0,4.52-11.61c.88,2.42.23,6.31-.76,9.89a29.15,29.15,0,0,1,4.85-1.29l.11-.16a11.11,11.11,0,0,1,1.52-1.77l-.6.32c3.52-9.66,3-21.17,3-21.17,3.31,3.92,2.23,16.13,2.23,16.13C261.84,134,241.23,106,241.23,106c5.53,3.47,14,17.31,14,17.31-2.88-14.67-19.4-28.51-19.4-28.51C256,64.55,255,51.29,255,51.29c-24.79-10.5-53.4,5.29-53.4,5.29a38.67,38.67,0,0,0-30.23-13.23c6.4,1.6,11.8,7.61,11.8,7.61a126.37,126.37,0,0,0-24.49-5.91c-2-4.78-10.41-20.18-38.05-20.24,0,0-5.09,20.58-.28,32.53-8.76,3.75-9.61,7.06-9.61,7.06l8.88-1.83-5,20.51A35.48,35.48,0,0,0,96.31,93.57c2.06-1.19,8.75-.44,8.75-.44-16.88,8.9-20,24.52-20,24.52A9.72,9.72,0,0,1,91.67,113.74ZM214.2,63.58s18.63-11.35,31.14-5.87c0,0-5.42,17.57-14.88,24.69C230.45,82.36,223.53,70.43,214.2,63.58ZM142.77,99.5c2.65-14.27,15.88-33.08,27.59-30.81s17.3,24.69,14.66,39-14.24,24-25.91,21.74S140.13,113.77,142.77,99.5ZM137,118.31c9.27,4.32-12.67,10-12.67,10s-4.67-6.92-5.8-12.93,9.22-1.39,18.49,2.92ZM127.5,32.86C143,34.73,151.66,47,149.26,47.79c-5.57,1.77-20.11,12.1-20.11,12.1C122.56,52.12,127.5,32.86,127.5,32.86Z"/><path class="cls-3" d="M248.47,136.72s-.23,30.3-15.07,43.05c0,0,4.92-12.48,5.29-18.29,0,0-6.43,23.69-41.21,29.25a41.29,41.29,0,0,0,16.16-12.68s-44.76,22.8-77.16,1.76l63.63-15.87s29-27.47,29.65-27.54S248.47,136.72,248.47,136.72Z"/><path class="cls-2" d="M190.33,160.2c-13.49,6.06-30,5.29-49.22-2.21a.81.81,0,0,1-.45-1,.8.8,0,0,1,1-.45c20.5,8.05,37.84,8.2,51.54.46,21.3-12,26.45-39.37,26.5-39.68a.77.77,0,0,1,.88-.63.78.78,0,0,1,.62.88c-.05.28-5.33,28.36-27.27,40.75A37,37,0,0,1,190.33,160.2Z"/><ellipse class="cls-3" cx="172.64" cy="111.56" rx="8.41" ry="3.99" transform="translate(17.02 245.84) rotate(-73.66)"/><ellipse class="cls-2" cx="133.17" cy="99.27" rx="8.41" ry="3.99" transform="translate(0.45 199.13) rotate(-73.66)"/><path class="cls-2" d="M230.6,117.33s-1.9-22.42-16.92-7.67c0,0,12.78-9.94,16.66,11.11"/><path class="cls-4" d="M168.52,35.51s17.7-27.95,37.75-17.12,5.29,32.3,5.29,32.3S189.51,72.34,168.52,35.51Z"/><path class="cls-5" d="M214.87,63.44S169.74,72.62,155.33,39L166.39,28.7s22.44,29.1,45.2,22.05Z"/><polygon class="cls-6" points="158.78 43.01 168.43 34.01 167.92 33.18 158.27 42.18 158.78 43.01"/><polygon class="cls-6" points="162.74 47.87 171.72 37.86 171.16 37.1 162.17 47.1 162.74 47.87"/><polygon class="cls-6" points="168.05 52.48 175.77 40.97 175.12 40.31 167.4 51.81 168.05 52.48"/><polygon class="cls-6" points="173.2 56.54 180.07 44.24 179.37 43.65 172.5 55.94 173.2 56.54"/><polygon class="cls-6" points="179.93 59.28 185.5 47.78 184.78 47.25 179.2 58.76 179.93 59.28"/><polygon class="cls-6" points="187.25 60.74 190.92 50.71 190.16 50.28 186.48 60.32 187.25 60.74"/><polygon class="cls-6" points="193.29 62.61 195.76 53.28 194.95 52.95 192.49 62.28 193.29 62.61"/><polygon class="cls-6" points="200.79 63.31 201.91 53.6 201.07 53.45 199.95 63.16 200.79 63.31"/><polygon class="cls-6" points="208.67 63.28 209.5 63.15 208.46 53.42 207.63 53.55 208.67 63.28"/><path class="cls-7" d="M180.09,279.05c-.53-.47-1.15-1-1.86-1.52a11,11,0,0,1-1.41-1.32,5,5,0,0,1-.77-1.76.29.29,0,0,0,0-.13,16,16,0,0,0-2.84-5.35l-.27-.31a15.12,15.12,0,0,0,7.31-8.2,19.9,19.9,0,0,0,1.2-7.33,21.59,21.59,0,0,0-1.81-9,17.43,17.43,0,0,0-5.9-7.08,26.62,26.62,0,0,0-9.26-4,52.73,52.73,0,0,0-12.27-1.27c-4.16,0-7.55.09-10.07.27a26.31,26.31,0,0,0-6.7,1.17,9.74,9.74,0,0,0-3.38,2,7.38,7.38,0,0,0-5.74-2.29h-8l-8.5-.11c-3.39,0-7.49-.13-12.26-.22H97c-1.76,0-4.32.22-6.11,2.1a7.84,7.84,0,0,0-2,5.6v3.5c0,1.73.07,3.65.12,5.83s.08,4.37.11,6.66,0,4.32,0,6.07,0,3.76-.07,6-.09,4.59-.11,6.8-.06,4.06-.11,5.71-.08,2.84-.08,3.3c0,3.39,1.71,6,4.56,7a17.67,17.67,0,0,0,5.87.78,13.79,13.79,0,0,0,6.12-1.08,7,7,0,0,0,3.72-6.62V273.66h15.76a9.17,9.17,0,0,0,4.51-1v3.92c0,4.09-.08,6.55-.08,7.4a10,10,0,0,0,.35,2.62,6.75,6.75,0,0,0,2.31,3.49,8.59,8.59,0,0,0,3.63,1.66,14.89,14.89,0,0,0,3.26.31h1a18,18,0,0,0,6.24-1.15,6.93,6.93,0,0,0,4.2-6.54V273.11a13.45,13.45,0,0,1,1.9.2,2.05,2.05,0,0,1,.83.32,2.55,2.55,0,0,1,.62.83,15.54,15.54,0,0,1,1.1,3.11A31.6,31.6,0,0,0,157,284a16.06,16.06,0,0,0,3.64,4.78,13,13,0,0,0,5.35,2.8,22.94,22.94,0,0,0,5.72.66c3.55,0,6-.71,7.77-2.26a7.45,7.45,0,0,0,2.81-5.66A6.82,6.82,0,0,0,180.09,279.05Z"/><circle class="cls-8" cx="224.02" cy="262.88" r="30.44"/><circle class="cls-2" cx="228.19" cy="258.32" r="30.97"/><path d="M253.58,249.36H202.8a26.92,26.92,0,0,1,50.78,0Z"/><path class="cls-9" d="M255.11,258.32a26.48,26.48,0,0,1-1.53,8.95v.07H202.82v-.07a26.94,26.94,0,0,1,0-17.9h50.8A26.73,26.73,0,0,1,255.11,258.32Z"/><path class="cls-10" d="M253.58,267.27v.07a26.92,26.92,0,0,1-50.73,0v-.07Z"/><path class="cls-11" d="M255.11,258.32a26.48,26.48,0,0,1-1.53,8.95v.07a26.92,26.92,0,0,1-50.73,0v-.07a26.94,26.94,0,0,1,0-17.9h0a26.92,26.92,0,0,1,50.78,0h0A26.72,26.72,0,0,1,255.11,258.32Z"/><path class="cls-2" d="M183.09,276.05c-.53-.47-1.15-1-1.86-1.52a11,11,0,0,1-1.41-1.32,5,5,0,0,1-.77-1.76.29.29,0,0,0,0-.13,16,16,0,0,0-2.84-5.35l-.27-.31a15.12,15.12,0,0,0,7.31-8.2,19.9,19.9,0,0,0,1.2-7.33,21.59,21.59,0,0,0-1.81-9,17.43,17.43,0,0,0-5.9-7.08,26.62,26.62,0,0,0-9.26-4,52.73,52.73,0,0,0-12.27-1.27c-4.16,0-7.55.09-10.07.27a26.31,26.31,0,0,0-6.7,1.17,9.74,9.74,0,0,0-3.38,2,7.38,7.38,0,0,0-5.74-2.29h-8l-8.5-.11c-3.39,0-7.49-.13-12.26-.22H100c-1.76,0-4.32.22-6.11,2.1a7.84,7.84,0,0,0-2,5.6v3.5c0,1.73.07,3.65.12,5.83s.08,4.37.11,6.66,0,4.32,0,6.07,0,3.76-.07,6-.09,4.59-.11,6.8-.06,4.06-.11,5.71-.08,2.84-.08,3.3c0,3.39,1.71,6,4.56,7a17.67,17.67,0,0,0,5.87.78,13.79,13.79,0,0,0,6.12-1.08,7,7,0,0,0,3.72-6.62V270.66h15.76a9.17,9.17,0,0,0,4.51-1v3.92c0,4.09-.08,6.55-.08,7.4a10,10,0,0,0,.35,2.62,6.75,6.75,0,0,0,2.31,3.49,8.59,8.59,0,0,0,3.63,1.66,14.89,14.89,0,0,0,3.26.31h1a18,18,0,0,0,6.24-1.15,6.93,6.93,0,0,0,4.2-6.54V270.11a13.45,13.45,0,0,1,1.9.2,2.05,2.05,0,0,1,.83.32,2.55,2.55,0,0,1,.62.83,15.54,15.54,0,0,1,1.1,3.11A31.6,31.6,0,0,0,160,281a16.06,16.06,0,0,0,3.64,4.78,13,13,0,0,0,5.35,2.8,22.94,22.94,0,0,0,5.72.66c3.55,0,6-.71,7.77-2.26a7.45,7.45,0,0,0,2.81-5.66A6.82,6.82,0,0,0,183.09,276.05Z"/><path class="cls-3" d="M109.13,266.06a1.93,1.93,0,0,0-1.32.3,1.3,1.3,0,0,0-.3,1v13.87a2.53,2.53,0,0,1-1.18,2.51,9.86,9.86,0,0,1-4.06.59,13.88,13.88,0,0,1-4.35-.52c-1-.34-1.48-1.23-1.48-2.66,0-.44,0-1.5.08-3.17s.08-3.6.11-5.79.06-4.44.11-6.75.07-4.35.07-6.13v-6.12c0-2.31-.07-4.55-.12-6.71s-.08-4.1-.11-5.8,0-2.83,0-3.43a3.47,3.47,0,0,1,.7-2.43q.69-.73,3.21-.66l12.32.22,8.52.11h8a3,3,0,0,1,2.39.85c.47.57.7,1.84.7,3.8q0,4.73-3,4.72h-1.62l-3.25-.08-4.17-.07L116,243.6l-3.73-.08H110a2.48,2.48,0,0,0-1.81.55,2.65,2.65,0,0,0-.56,1.88v9.44a2.41,2.41,0,0,0,2,2.73,2.66,2.66,0,0,0,.69,0H127.8a3.51,3.51,0,0,1,2.88.93,4.81,4.81,0,0,1,.74,3,6.35,6.35,0,0,1-.59,3c-.4.69-1.38,1-3,1Z"/><path class="cls-3" d="M152.22,265.47a5.15,5.15,0,0,0-2.88.56,2.09,2.09,0,0,0-.73,1.8v13.55a2.32,2.32,0,0,1-1.44,2.32,13.65,13.65,0,0,1-4.61.77,12.09,12.09,0,0,1-3.06-.18,4.14,4.14,0,0,1-1.74-.74,2.24,2.24,0,0,1-.77-1.14,5.14,5.14,0,0,1-.19-1.4q0-1.26.08-7.34t.07-16.42V239.33a6.62,6.62,0,0,1,.55-2.91,4,4,0,0,1,2.44-1.81,21.75,21.75,0,0,1,5.49-.92c2.41-.18,5.66-.26,9.74-.26a47.76,47.76,0,0,1,11.18,1.14,22,22,0,0,1,7.67,3.29,12.89,12.89,0,0,1,4.39,5.23,16.94,16.94,0,0,1,1.4,7.09,15.46,15.46,0,0,1-.88,5.64,10.49,10.49,0,0,1-5.2,5.83,28.35,28.35,0,0,1-2.95,1.25l-2.25.78c-.59.19-.89.47-.89.81s.27.66.81,1a15,15,0,0,1,4.21,3.54,11.75,11.75,0,0,1,2,3.84,9.09,9.09,0,0,0,1.81,3.57,16,16,0,0,0,2,1.85q.92.7,1.59,1.29a2.25,2.25,0,0,1,.66,1.77,3.06,3.06,0,0,1-1.25,2.21c-.84.74-2.41,1.11-4.73,1.11a18,18,0,0,1-4.57-.52,8.37,8.37,0,0,1-3.47-1.8,11.73,11.73,0,0,1-2.58-3.43,27.05,27.05,0,0,1-2-5.46,20.35,20.35,0,0,0-1.48-4.06,6.89,6.89,0,0,0-1.95-2.4,6.66,6.66,0,0,0-2.73-1.14A19.54,19.54,0,0,0,152.22,265.47ZM168.3,251a7,7,0,0,0-3-6q-3-2.22-10-2.22a29.34,29.34,0,0,0-3.25.15,5.48,5.48,0,0,0-2,.52,1.87,1.87,0,0,0-1,1.1,5.94,5.94,0,0,0-.26,1.92v10.18a2.81,2.81,0,0,0,.22,1.18,1.86,1.86,0,0,0,1,.89,6.8,6.8,0,0,0,2.17.55,32.55,32.55,0,0,0,4,.19c4.18,0,7.26-.79,9.22-2.36A7.49,7.49,0,0,0,168.3,251Z"/></svg>